<?xml version="1.0" standalone="no"?>
<!DOCTYPE svg PUBLIC "-//W3C//DTD SVG 20010904//EN"
 "http://www.w3.org/TR/2001/REC-SVG-20010904/DTD/svg10.dtd">
<svg version="1.0" xmlns="http://www.w3.org/2000/svg"
 width="125.000000pt" height="125.000000pt" viewBox="0 0 125.000000 125.000000"
 preserveAspectRatio="xMidYMid meet">
<metadata>
Created by potrace 1.11, written by Peter Selinger 2001-2013
</metadata>
<g transform="translate(0.000000,125.000000) scale(0.100000,-0.100000)"
fill="#000000" stroke="none">
<path d="M459 1055 c-204 -50 -324 -189 -365 -426 -29 -168 -11 -287 51 -342
52 -45 201 -101 303 -114 77 -9 87 -9 94 1 5 7 8 7 8 -1 0 -7 5 -13 11 -13 5
0 7 5 3 12 -5 7 -3 8 7 2 13 -8 40 -10 159 -15 19 -1 53 6 75 16 22 9 56 19
75 22 19 2 53 18 76 36 23 18 55 41 70 52 46 33 65 57 91 112 19 42 24 66 22
119 -7 191 -184 466 -337 525 -72 27 -257 35 -343 14z"/>
</g>
</svg>
